<svg id="Layer_1" data-name="Layer 1" xmlns="http://www.w3.org/2000/svg" viewBox="0 0 1061.86 1069.92"><defs><style>.cls-1{fill:#fff;}</style></defs><path class="cls-1" d="M1239.38,2151.94c10.73-6.33,11.14-6.61,4.51-16.22-5.07-7.34-9.86-14.83-14.73-22.29a30.66,30.66,0,0,1-5.32-15.7,42.38,42.38,0,0,0-7.29-22.37,200.77,200.77,0,0,1-15.11-27,18.46,18.46,0,0,1-1.62-12.56c2.37-10.48-2.28-18.42-10.63-23.49-7.15-4.33-10.9-9.84-13.2-17.66-2.89-9.78-6.23-19.51-12-28.22-3.38-5.12-7.3-9.5-12.75-12.32a14.3,14.3,0,0,1-6-5.17c-3.27-5.65-6.47-10.35-14.33-9.91-3.85.21-6-4-6.77-7.71-1.82-9-8.77-14.7-13.63-21.73a7.4,7.4,0,0,0-3-2.62c-13.83-5.84-24.29-15.8-33.66-27.15-2.14-2.61-5.12-4.17-8-5.94-11.26-7-22.69-13.7-32-23.5-3.84-4-9.15-6.69-14.55-8.5-14.13-4.72-26.48-12.15-36.62-23.18-1.53-1.67-3.52-3.44-5.6-4-16.89-4.58-33.16-11.38-50.49-14.33a19,19,0,0,1-7.48-2.54c-13.64-9-32.82-16.1-48.5-18.31-3.91-.55-7.68-2-11.56-2.9-4.19-.92-8.29-2.59-12.67-2.27-7.57.55-14.58-.12-19.85-6.65-2.12-2.62-5.52-2.63-8.37-1.65-5.29,1.83-10.3,1.19-15.57,0a15,15,0,0,0-11.59,1.52,15.41,15.41,0,0,1-13.42,1.29c-7.15-2.33-13.74-1.39-19.68,3.53-3.85,3.2-8.88,3.34-12,.3-9.43-9.21-20.28-7.69-30.73-4.27-14.88,4.86-30.09,7.32-45.48,9.23a36.67,36.67,0,0,0-14.79,5.47c-8.13,5-11.17,4.67-18.76-1s-15.5-4-19.08,5.07c-2.37,6-6.34,8.4-12.07,10.44-12.71,4.52-26.37,6.67-37.87,14.41a19.36,19.36,0,0,1-13.29,3.06c-5-.83-8.16,1-11.84,3.19a169.55,169.55,0,0,0-21.2,14.82,56.6,56.6,0,0,1-19.1,10.24c-11.43,3.7-19,13.11-28,20.36-5.69,4.59-10.79,9.86-18,12.18a5.81,5.81,0,0,0-2.58,1.47c-8.58,10-21.14,16-28,27.66a16.27,16.27,0,0,1-5.35,5.78c-16.36,10.42-30.62,22.93-42,38.93-5.92,8.31-14.07,15.13-18.61,24.48-7.15,14.74-18.22,26.89-26.34,40.84-5.62,9.66-11.6,19.08-17.22,28.71-6,10.25-9.75,21.78-14.78,32.62-6.31,13.6-11.75,27.4-13.81,42.41-.6,4.37-3.87,7.46-7.43,10.23-5.21,4.06-5.56,5.42-1.5,10.56,5.28,6.68,4.38,12.91,1.62,20.39-6.77,18.36-11.33,37.31-14.8,56.66-3.75,20.94-7.13,41.79-6.7,63.11.06,3-.54,6.05,1.1,8.8,5.43,9.12,6.73,19,6.06,29.44-.88,13.47,3.73,26.22,5.43,39.35.25,2,1.13,4.12.62,5.87-4.25,14.66,3.88,27.93,4.53,42,.13,2.83,1.78,5.69,3.12,8.34,3.75,7.45,7.26,14.84,6.82,23.59-.27,5.22,2.84,9.46,5.9,13.44,9.7,12.62,15.19,26.88,18.8,42.37,5,21.39,15.76,39.86,31.21,55.72,8.72,9,18.47,17.39,22.33,30.11.43,1.42,1.92,2.7,3.22,3.64,10.76,7.75,18.09,18.48,25,29.45,4.63,7.36,10.34,12.94,18.75,15.47s15.37,8,21.89,13.57c9.35,8,18.66,16,28.85,22.91,5.76,3.89,10.31,8.52,11.54,15.53.87,5,3.73,6.76,8.4,6.27,6.35-.66,11.49,2.35,16.91,5,19.42,9.47,37.47,21.29,56.14,32,4.6,2.65,9.31,5.23,14.91,5.1.33,0,.76-.05,1,.13,9,7.71,21.77,7.26,31.21,14.08,6.88,5,14.61,6.51,22.94,8.2,12.44,2.53,24.58,4.24,37.28,3.9,7-.19,12.94,5,18.85,8.53,5.6,3.32,11,3.21,17.13,3.2,13.06,0,26.42-2.51,39.14,2.8a9.91,9.91,0,0,0,3.83.95c16.62-.4,33.25,1.15,49.86-.77a63.16,63.16,0,0,1,14.92-.26c5,.62,9.33-.38,13.05-3.38,4.71-3.81,9.46-5.65,15.56-3.5,4.15,1.46,8.69,1,12.84-.18,12-3.52,24.76-5,35.43-12.61,2.31-1.64,5.57-2,8.41-2.83,2.21-.68,4.83-.74,6.59-2,13.14-9.41,29.2-10.52,43.82-15.68,10.65-3.76,21.22-7.56,30.8-13.64,2.88-1.83,5.71-3.45,9.25-3,5.75.66,10.27-2.31,14.72-5.16a99,99,0,0,0,9.47-7.3c8.15-6.76,15.94-13.76,26.11-17.88,6.32-2.57,11.66-7.58,17.34-11.64,1.86-1.33,3.12-3.45,5.5-4.17,7.92-2.39,13-6.87,14.34-15.78.69-4.82,4.87-7.59,10.28-7.68a24.51,24.51,0,0,0,9.58-2.38,13.66,13.66,0,0,0,8.39-10.23c2.79-12,9.76-21.63,18.38-30,4.82-4.71,6.2-4.33,12.58-.27,2.48,1.57,5,3.3,8.19,1a6.15,6.15,0,0,0,2.18-7.94c-2.36-5.66.7-9.61,3.78-13.57,9.14-11.75,18.72-23.22,21.55-38.51a7.32,7.32,0,0,1,4-5.49c5-2.35,7.93-6,7.81-11.62-.07-3.18,1.94-4.82,4.29-6.19,5.12-3,8.16-7.42,10.43-12.89,2.53-6.11,6.08-11.81,9.09-17.74,1.09-2.16,2.34-4.05,4.79-4.75,6.46-1.86,6.25-5.92,3.56-10.76-2.79-5-1.45-9.11,1.78-13.63a84.44,84.44,0,0,0,15.21-41.59,33.46,33.46,0,0,1,4.74-13.91c.82-1.44,2.4-2.6,2.77-4.11,3.9-15.59,11.13-30.45,10.67-47-.15-5.4.17-10.61,3-15.44,1.87-3.19,3.07-6.76,1.64-10.37-3.12-7.88-2.39-15.81.08-23.45,2.42-7.49-1.33-15.11,1.37-22.46.79-2.16,1.14-4.5,1.88-6.69,2.74-8.17,5.13-9,11.82-4.06,2.42,1.8,4.71,3.63,7.86,4,6.54.76,9.57,5,11.47,10.93a40.7,40.7,0,0,1,1.61,11.76c.12,5.05-1.37,9.05-6.13,11.58-5.09,2.71-6.35,6.64-4.77,12.47a32.83,32.83,0,0,1-2.94,24.22c-3.29,6.3-3.77,12.7.13,19,3.33,5.37,2.62,10.84,0,16.08-3.21,6.54-6.36,13.2-10.45,19.19-3.6,5.29-5.2,10.67-4.54,16.84a37.67,37.67,0,0,1-2.64,18.53,16.6,16.6,0,0,0-1.28,6.79,26,26,0,0,1-5,15.93c-5.32,7.74-9.34,16.05-13.31,24.45-4.23,8.92-8.35,17.9-12.52,26.85-10.79,23.22-22.55,45.79-39.83,65.12a156.28,156.28,0,0,0-25.57,39c-4.12,9-8.9,17.82-16.35,24.83-3.68,3.45-6.89,7-12.6,7-4.55-.06-6.65,4.15-9.28,7-6.07,6.46-11.25,13.34-19.47,18-6.62,3.77-9.53,12.53-15.37,18.06-6.75,6.38-13,13.29-20.12,19.27-5.2,4.4-12.11,5.1-18.79,5.58-2.65.2-5.4-.14-7.94.45-4.42,1-6,4-3.66,8,4.76,8.13,2.32,11.93-6.71,13.79-10.76,2.21-20.41,7.74-30.53,11.81-6.45,2.59-11.74,7.45-16.36,12.8-3.4,4-7.17,6-11.94,2a6.88,6.88,0,0,0-6.62-1.34c-7.69,2.72-16.79.32-23.5,6.52-2.2,2-5,1.55-7.62,1.33-6.29-.53-11.91.85-16.37,5.58s-10.67,5.29-16.44,6.31c-10.17,1.81-19.77,4.22-28.86,9.86-6.87,4.27-15.27,6.26-23.17,8.64-7.6,2.29-15.23,4.25-22.55,7.53-3.32,1.49-7.39,1.46-11.5,1.19-9.88-.63-19.86-1.3-29.82.58a40.62,40.62,0,0,1-14.91,0c-6-1.16-11.91-1.12-17.86-1-6.2.15-12-.38-16.49-5.26-3.23-3.54-6.49-2.35-9.75-.28a25.23,25.23,0,0,0-4.71,3.69c-4.71,4.89-10,6-16.17,3-5-2.36-10.47-1.44-15.69-2.17-15.87-2.23-30.86-8-45.84-12.78-16.44-5.24-33.28-8.27-49.77-12.91-7.39-2.08-14.65-4.35-21-8.75-4.09-2.82-8.07-3.86-13.05-1.76-5.71,2.4-10.9,1.27-15-4.09a136.36,136.36,0,0,0-9.35-10.36c-4.32-4.63-9.69-8-15.94-6.08-5.4,1.65-9.31-.37-12.87-3.09-10.6-8.1-22.34-14.4-33.37-21.79-8.3-5.55-16.18-11.71-22.85-19.23a49.73,49.73,0,0,0-16.79-12.32c-11.88-5.39-22.41-13-33.3-19.91a69.33,69.33,0,0,1-29.52-39c-2.09-6.77-6.31-11.44-11.77-15.47-6.14-4.54-12-9.4-18.24-13.86-10.53-7.59-15.1-19.61-20.35-30.31-11.36-23.17-27.54-43-40.94-64.74-1.05-1.69-2.93-3.2-3.2-5-1.83-12-10.4-20.6-15.16-31.1-4.24-9.32-9.31-18.33-10.57-28.77-.61-5.11-7.15-20.48-10.75-25.24-3.39-4.48-3-9.44.46-12.79,6.35-6.16,8.64-12.34,3.86-20.27,3.65-9.64-4.25-14.09-8.95-20-2.3-2.89-4.3-6.06-4.14-9.93.42-10.32-1.86-20.47-1.52-30.82.33-9.93,1.17-20-1.72-29.78a7.64,7.64,0,0,1-.07-4c3.46-12.2,3.19-25,5.73-37.3a30.21,30.21,0,0,1,4.67-10.92c3.52-5.17,3.81-10.44,2.38-16.14-.81-3.21-1.29-6.59-2.63-9.57-5.06-11.23-1.71-21.35,3.6-31.3,1.56-2.92,3.8-5.47,4.44-8.87.36-2,1.89-4.1,1.4-5.7-3.09-10.2,1-20.25.17-30.47-1-12.1,3.84-22.45,14.28-29.55,3.79-2.57,6.43-5.73,5.91-10.73a10.78,10.78,0,0,1,.88-5.84c8.34-17.84,9.59-37.65,15.48-56.19,2.5-7.87,7.32-14.13,12-20.5,2.82-3.8,5.63-7.46,6.31-12.2s3.21-7,8.09-6.46c5.05.57,6.79-1.82,7.52-6.76,1.73-11.7,10.38-19.86,16.45-29.26,4.8-7.45,10.15-14.58,17.09-20.48,12.69-10.78,22.21-24.62,34.45-36,8.05-7.48,12.65-18.47,19.68-27.32,3.13-3.94,6.54-7,11.24-7.29,4.9-.24,7.24-2.88,9-6.58a39.27,39.27,0,0,1,18.63-18.69,21.23,21.23,0,0,0,9.56-8.47c2.51-4.45,6.55-6.6,11.4-7,8.06-.7,14-4.64,19.84-10.15,8.17-7.74,17.43-14.34,26-21.69,4.7-4,9.3-4.66,14.55-1.45a46.93,46.93,0,0,0,5.32,2.63c2.86,1.3,5.42,0,7.25-1.82s.72-4.08-.45-6.34c-4.5-8.65-4-9.92,5.26-11.76,7.66-1.53,15.21-5.19,23.35-1.71,1.32.56,3.24-.19,4.86-.47,2.61-.46,5.18-1.45,7.79-1.49,12.08-.2,22.58-4.75,32-11.85,10.06-7.62,23.37-9.49,32.4-19,3.12-3.28,7.23-2.84,10.48.77.89,1,1.72,2,2.6,3,6.42,7.26,9.21,6.94,13.67-1.52,4.81-9.13,8.32-11,18.33-8.7,10.86,2.53,22.4,2.22,32.44,8.39,4.64,2.86,9.94.75,14.43-1.2a46.93,46.93,0,0,1,22.35-3.8c9.33.64,18.47-2,27.82-1.38,7.62.52,7.63.32,8.85,8.38a16.18,16.18,0,0,0,.89,3.86c1.49,3.47,4.49,4.25,6.85,1.13,7.92-10.45,20.3-8.2,30.79-11.1,3.86-1.07,7.6,2.13,10.71,4.57a31.55,31.55,0,0,0,19.31,6.78c4.25.12,8.53,1.27,12.68,2.39,8.73,2.33,17.65-.92,26.46,1.29,5.29,1.32,10.24,2.43,13.89,6.9a17.05,17.05,0,0,0,11,6.15c7,1.12,13.3,4.57,19,8.37,9.94,6.57,20.54,12,30.42,18.66,6.72,4.54,14.82,7,22.26,10.52,12.32,5.78,24.32,11.9,34.64,21.15,9.18,8.24,19.47,15,32.16,16.93,3.37.51,6.07,2.39,8.74,4.49,5,3.91,9.92,7.94,15.37,11,4.52,2.59,8.29,5.39,10.16,10.36a4,4,0,0,0,1.1,1.65c7.76,6.13,15.71,12.07,18.25,22.5.31,1.3,2.09,2,3.32,1.73,6.06-1.2,9.09,3.15,12.52,6.65,7.66,7.81,16.21,14.78,22.25,24.12,1.45,2.24,3.22,4.24,3.62,7,.56,3.87,2.8,6.74,5.55,9.21a95.05,95.05,0,0,1,26,38.37c3.56,9.54,10,17.42,17.63,23.81a35.54,35.54,0,0,1,12.84,23.95,102.08,102.08,0,0,0,10.22,34.08c.59,1.19.71,3.08,1.61,3.56,8.88,4.67,7.48,14.86,12,21.85,2.21,3.47,1.16,7-.5,10.29-1.83,3.61-1,6,2.25,8.46,5.16,3.89,8.24,9.34,10.65,15.37,1.83,4.58,3.07,9.54,6.36,13.48.62.73,1.4,1.81,1.29,2.61-1.52,11.09,3.1,22.67-2.29,33.36-2.56,5.08-2.11,9.53.69,14.13a37.89,37.89,0,0,1,4.63,13.07c.55,2.93-.56,5.24-1.75,7.44a7.17,7.17,0,0,1-7.37,4c-3.36-.49-4.94-3.3-5.39-6.4a66.35,66.35,0,0,1-.16-8c0-2.65.59-5.52-.82-7.86-4.15-6.86-6.57-13.65-1.81-21.3,1.36-2.19,0-4.4-1.32-6.45C1243.73,2159.49,1241.81,2156,1239.38,2151.94Z" transform="translate(-222.07 -1737.33)"/><path class="cls-1" d="M599,2477.56a64.08,64.08,0,0,1-20.72-7.95,67.29,67.29,0,0,1-20.2-19c-7.17-10.47-2.9-23,8.4-29,14.33-7.66,28.16-8.32,42.54-.37a52.67,52.67,0,0,0,17.9,5.6c8.1,1.22,16.35,2.77,23.1,8.42,3.21,2.7,7.14,3.38,11.12.89,5.24-3.28,8.05-.26,9.87,4.26a16.36,16.36,0,0,0,4.26,6.6c5,4.3,10.85,5.07,17.12,1.61,3.73-2.06,7.18-2.12,11.39-1.55,11.39,1.56,22.2,7.07,34.21,4.93,2.36-.42,5.22,1,7.62,2,6.17,2.73,12.46,4.52,19.28,3.7,3.55-.42,6.42.94,9.13,3.18,5,4.09,9.83,2.9,14.52-.65,2.11-1.6,4.18-3.27,6.33-4.82,4.05-2.93,8.17-3.82,13-1.46,9.25,4.49,17.87,2.44,26.4-2.75,6.17-3.75,11.64-8.73,19.1-10.43,4.24-1,7.34-1.14,10.83,2.12,5.37,5,5.94,4.71,12.76.48a11.16,11.16,0,0,1,3.49-1.86c13.93-2.46,25.11-11.93,38.72-15.12a30.14,30.14,0,0,0,9-4.2c4.49-2.77,8.26-1.53,11.32,2.31a35.85,35.85,0,0,1,4.34,6.65c2.88,5.95,2.18,8.17-3.49,11.28a65.85,65.85,0,0,1-22.49,7.7c-10.42,1.47-15.79,10.36-23.26,16.12-2.23,1.72-1.45,5.08-.19,7.51,5,9.66,8.27,20.44,18.2,26.85,2.45,1.58,4.24,4.2,6.27,6.41,5.42,5.89,8.66,6.69,14.3,1.72,4.51-4,8.93-5.46,14.53-3.53,4.33,1.5,7.78-.5,11-2.91,5.6-4.16,11.16-8.39,16.63-12.71,4.39-3.45,8.65-5.11,13.12-.21,1.14,1.24,2.44,2.31,4.27,2.23,2.54-.11,4.81-.56,3.66-4-.31-.95-.84-1.83-1.14-2.77-2.07-6.49.11-10.25,6.91-10.95a97.32,97.32,0,0,1,14-.12c9.35.4,16.67-2.75,22.08-10.75,4.45-6.58,9.11-13,14.13-19.28,3.34-4.14,6.09-6.93,11.45-4.26,4.25,2.12,6.05.05,6.8-3.93,1-5.55,4.41-9.34,8.83-12.7,6.78-5.18,7.67-8.38,3.5-15.2a20.85,20.85,0,0,1-3.1-12.24,39.94,39.94,0,0,0-.38-8c-1.15-7.1-2.64-14,7.49-16.07,2.59-.53,2.88-3.61.64-5.6-4.35-3.86-6.72-9-9.55-13.84-2.24-3.85-2.37-7.1-.68-11.23,4.4-10.73,4.46-21.38-2.76-31.15-4.47-6-4.66-12.41-1.46-18.75,1.84-3.63,2-6.86.39-10.35-2.38-5.07-2.35-10.6-1.47-15.71,2.29-13.27-.69-25.63-5-37.87a98.38,98.38,0,0,1-5.7-24.16,23,23,0,0,0-6.83-15c-12.93-12.41-17.23-28.71-20.36-45.38-.79-4.25-1.93-7.51-5.21-10.18-8.47-6.86-14.76-15-16.4-26.27-.73-5-3.71-9.33-7.47-12.69a25.11,25.11,0,0,1-7.7-13.62c-2.19-9.23-8.19-15-17.1-17.79a26,26,0,0,1-13.53-9.62c-6.32-8.47-14.4-13.63-25.62-12.43-4.48.48-8.29-1.47-11.82-4.35-5.66-4.61-12.26-7.27-19.49-4.89-8.11,2.67-15-.07-21.87-3.53a34.81,34.81,0,0,1-5.8-3.86c-9-7.1-18-13.79-30.57-10.7-1.21.3-2.63-.2-4-.37-2.65-.34-5.57-.46-6.09-3.91A7,7,0,0,1,846,2000a24.27,24.27,0,0,1,22.94,1.79c7.55,4.78,16.84,6.08,23.42,12.61,2.55,2.53,6.19,2,9.52,1.9,5.32-.2,10.64-.33,16-.63,8.82-.48,17.29,0,24.23,6.58,2.3,2.19,5.45,2.33,8.5,2.1,11.39-.87,19.45,3.47,25.49,13.59,4.19,7,10.09,13,20,12.7,4.88-.16,8.62,3.32,9.35,8.75,1,7.71,6,14,7.62,21.52a7.23,7.23,0,0,0,2.46,4.23c7.33,4.84,11.1,13.2,18.25,18.15,4.19,2.9,6,7.11,6.17,11.94.3,8.08,3.79,14.49,9.45,20,4.86,4.75,8.47,10.21,9,17.29a5.76,5.76,0,0,0,1,2.79c9.21,12.65,8.69,29.32,16.71,42.09a51.83,51.83,0,0,1,8.12,34.46,15.84,15.84,0,0,0,2.53,9.48c5.54,8.48,7.27,18.54,12,27.32a14.39,14.39,0,0,1,.85,11.65,35.07,35.07,0,0,0-.17,22.47c3.4,10.52,1.21,21.94,5.71,32.21.38.85.58,2.35.11,2.9-6.2,7.17-3.14,15.34-1.64,22.72,2.13,10.51,2.41,21.56,8,31.28,3.76,6.53,3.66,8.48-2.36,13.79-5.26,4.65-6.1,9.84-4.82,16.06.26,1.3.67,2.57.86,3.88,1.77,11.89,1.74,22.93-9.58,31.18-5.27,3.84-9.21,9.54-13.72,14.43-3.42,3.72-7,5.34-12.35,3.37-9.72-3.53-11-2.79-12.13,7-.84,7.62-6.5,11.17-11.7,13.85-11.39,5.87-21.66,14.18-35,16.33-8.09,1.3-13.8,7.74-20.27,12.23-4.78,3.31-9.28,6.09-15.23,6.43a28.76,28.76,0,0,0-16.35,6.51,43.89,43.89,0,0,1-12.92,7.41c-2.85,1-5.54,1.85-8.68.8a18.81,18.81,0,0,0-13.63.77c-8.69,3.67-15.55.06-21.24-6.1-3.6-3.89-7-7.91-11.32-11.06a21.54,21.54,0,0,1-8.63-12c-2.29-9.19-7.91-16.82-11.09-25.56a24.48,24.48,0,0,0-3.71-5.87c-7.39-9.94-9.29-10.07-17.94-.91-4.28,4.54-9.61,5.29-15.44,5.28-26.28-.08-52.56,0-78.85-.09-6.37,0-12.62.11-18.47,3a12.58,12.58,0,0,1-10.66.63c-7.63-3.27-15.57-3.23-23.53-2.86A36.78,36.78,0,0,1,681,2485c-4.81-3-10-5-16-4.73-4.74.19-9-2.1-13.26-3.94-6.25-2.67-9.39-2.35-12.62,3.43-4.9,8.78-11.65,17-11.09,28.1.14,2.9-.13,6.33-1.55,8.7-6.6,11.05-12.46,22.5-22.62,31.25-8.28,7.13-24.44,8.62-34.9-.23a46.42,46.42,0,0,1-6.4-6.29c-3.07-3.85-6.36-4.39-10.36-1.64-4.48,3.08-8.68,2.09-13-.71-2.48-1.62-5.21-3.41-8-3.85-10.29-1.61-18.07-7.84-26.53-13.09-9.28-5.76-19.12-10.63-28.85-15.62-2.37-1.21-5.11-1.94-6.85-3.91-10.05-11.28-23.2-17.4-37.05-22.15a17.12,17.12,0,0,1-10.37-8.6c-4.51-8.61-10-16-17.89-22.31-6.31-5-8.23-14.13-7.86-21.82.95-19.57-1.82-39.35,2.7-58.67a13.87,13.87,0,0,0-.8-8.57c-2.67-7.18-3-14.17-.09-21.38a27.24,27.24,0,0,0,.79-18.53c-3-10.39-2.13-21.09-2.29-31.71a19.14,19.14,0,0,1,2.45-9.52c5.89-10.94,9.19-22.7,11.63-34.78.59-2.9,1-6.23,2.73-8.44,5.63-7.32,6.85-15.52,6.83-24.4,0-4.93,1.69-9.78,4.1-14.24a86.35,86.35,0,0,0,7.6-19.44c.25-.95.11-2.29.71-2.84,5.67-5.18,6.67-10.69,2.49-17.47-1.55-2.53.92-5.07,3.09-6.64,1.86-1.35,4.14-2.11,6.17-3.24,6.28-3.49,8-6.2,5.29-12.95-3.48-8.75,1-15.58,4.07-22.68,2-4.59,6.77-4.43,11.32-4.08,6.35.49,6.68.17,5.78-6.32a16.9,16.9,0,0,1,2.39-11.43c4.76-8,8.94-16.17,11.15-25.41,1.68-7,8.69-11.63,9.75-19.26.3-2.12,2.65-3.06,4.67-3.09,7.88-.13,13.7-4.54,19.54-9,3.85-2.94,8.26-4.77,13-3.7,5.11,1.15,8.5-1.08,11.14-4.7,4.26-5.83,10-8.31,16.94-8.92a27.33,27.33,0,0,0,13.72-5.48c5.61-4.07,11.81-6,18.74-5a17.91,17.91,0,0,0,11.55-2c4.48-2.45,9.57-2.46,14.43-3.34,2.61-.48,5.44-.39,7.82-1.37,7.08-2.92,13.8-5.65,21.61-1.6,2.59,1.33,6.44.34,9.78-.44,9.36-2.19,14.18-.14,19.43,7.84,3.47,5.27,6.82,10.6,10.55,15.71,5.68,7.81,3.07,15.5-6,19.17-3.68,1.5-7.45,2.78-11.13,4.3-7.15,3-13.12.26-15.41-7.22a19.76,19.76,0,0,1-.65-5.91c0-3.17,2-7.36-2.42-8.57-4.9-1.34-11-4.55-15,.44-8,9.79-18.22,8.45-28.37,6.78-4.81-.79-8.53-.23-11.75,3-6,6.08-14.08,8.82-21.36,12.62-4.42,2.3-10.29,1.85-15.51,2.56-1.31.18-2.84-.32-4,.18-14.06,6.28-29.62,10.08-38.72,24.45-5.14,8.11-10.28,16.23-17.16,23.21-5,5.1-5.54,12.57-7,19.34a77.54,77.54,0,0,0-1.4,9.83c-.55,6.64-2.93,11.9-8.74,15.88-5.58,3.83-7.67,10-10.18,16.35-4.22,10.66-4.79,21.67-6.29,32.63-1,6.94-5.64,11.05-10.18,15.39-1.67,1.6-3.76,2.76-5.49,4.3-3.84,3.41-3.7,4.67.56,7.25,8.29,5,8.3,5,4.06,13.6a22,22,0,0,1-2.47,4.3c-5,6-7.81,12.08-4.23,20.07,1.59,3.53.23,7.25-3.71,9.23-6.12,3.08-9.22,8.19-10.69,14.77a44.67,44.67,0,0,1-4.08,10.14c-1.6,3.15-2.38,6.39-1.13,9.61,1.92,5,1.47,9.79-.22,14.59a22.46,22.46,0,0,0,.29,15.46c3.79,10.67,3.11,22.28,7,33a15.46,15.46,0,0,1-.19,9.85c-3,8-3,16.26-2.87,24.56.12,6.41-.7,12.58-3.56,18.42-2.25,4.61-1.13,8.39,3.25,11.11,6.65,4.13,10.94,10.45,15.95,16.23,6.71,7.74,15.15,13.94,23.72,19.44,8.87,5.71,19.48,8.34,28.41,14.21a4.36,4.36,0,0,0,2.86.53c8.66-1.44,14.56,1.82,18.59,9.69,2.11,4.12,6.33,6.19,11,4.52s8.24-.31,12,2.08c9.29,5.86,20.07,8.8,29.21,15.06,4,2.76,6.36,1.52,8.47-3.15a9.55,9.55,0,0,0,1-2.8c.91-9.05,5.47-15.47,13.69-19.35C598.15,2481,598.82,2479.91,599,2477.56Z" transform="translate(-222.07 -1737.33)"/><path class="cls-1" d="M625.83,2377.69c-3.17,0-5.89.36-8.48-.07-7.55-1.27-15.87-.71-17.42-12-.81-6-5.63-7.93-12.42-6.48-5,1.06-8-.42-9.54-4.62-1.46-3.93-4-6.79-6.78-9.7-3.28-3.46-5.67-7.39-5.17-12.49.06-.64-.26-1.31-.24-2,.13-6.95-7.07-10.7-7.74-16.89-.65-6,3.24-12.22-.57-18.33a6.86,6.86,0,0,1-.22-7.54c5.46-9.48,7.25-19.89,6.76-30.64-.24-5.4,1.75-8.94,6.5-11.07a26.65,26.65,0,0,0,8.57-6.72c3.44-3.74,7.09-7,12.63-7,1.28,0,3.13-.22,3.74-1.05,6.19-8.41,17.19-8.27,24.75-14.14,4.92-3.83,10.3-4.6,15.89-2.05,4,1.8,7.5,1.07,11.53.11,13.13-3.12,25.45-2.21,34.45,9.68,2.4,3.18,5.64,3.07,9,2.9,4-.2,6.72,1.28,6.33,5.6-.64,7.3,3,12.72,7.16,18,1.65,2.09,3.32,4.17,4.88,6.32,3.55,4.91,5.42,9.82.33,15s-4.06,11.29,0,16.19c5.52,6.75,4.49,13.23,1.77,20.52-3.27,8.79-8.28,16.56-12.83,24.63-2.37,4.2-6.38,4.54-10.07,5.56-8.15,2.24-8.63,3.16-4.31,10.47.17.29.42.53.59.81,4.86,8.09,4.63,8.67-4.42,11.2-.32.09-.72.05-1,.24-12.25,9.34-28.25,8.24-41.43,14.89C633.7,2379.28,629.52,2376.77,625.83,2377.69Zm4.9-35.35c14,0,22.57-4.48,31.62-5.63,10.26-1.3,17.83-4.1,20.4-15a4.85,4.85,0,0,1,1.61-2.48c8.66-6.82,9.21-15.42,6-25.12-.81-2.46-.29-5.33-.87-7.9-1.64-7.39-2-15.67-7.56-21.17a60.85,60.85,0,0,0-32.13-16.84c-7.55-1.43-14.29.64-21.17,3.63-11,4.79-18.87,13.12-26.84,21.57-3.61,3.82-5.16,8.49-3.4,12.8,4.59,11.25,3.74,22.86,3.71,34.45,0,3.63,1.09,6.61,3.82,8.79C614.52,2336.34,623.77,2341.89,630.73,2342.34Z" transform="translate(-222.07 -1737.33)"/><path class="cls-1" d="M846,2377a18.75,18.75,0,0,1-11.63-.94c-3.28-1.36-5.82-3.16-6.39-6.93-1.13-7.49-5.61-11-13-10.76-5.3.19-8.68-2.44-11.37-6.67-2.3-3.64-4.83-7.13-7.38-10.61-1-1.34-2.49-2.49-2.22-4.28,1.11-7.27-3.15-12.62-6.26-18.43-1.08-2-2.38-4.48-2.09-6.52a30.78,30.78,0,0,0-3.2-18.28c-1.11-2.29-.08-4.5,1.08-6.61a59.64,59.64,0,0,0,7.76-31.38c-.18-5.23.87-9.21,6.44-10.81,2.66-.77,4.57-2.66,6.34-4.67,4.05-4.62,8.58-8.31,15.2-8.2,1,0,2.36-.07,2.86-.68,6.58-8.06,18.2-7.83,25-15.33,3.18-3.48,6.91-3.77,10.71-1.87,5.44,2.72,10.58,2.48,16.32.68,8.9-2.81,17.77-.65,26.37,2.08a8.47,8.47,0,0,1,4.63,3.55c3,5.78,7.76,7.85,13.92,7.09,3.35-.41,5.69.72,4.8,4.17-2.16,8.3,2.63,14,6.73,20,2.06,3,4.46,5.79,6.47,8.84,2.59,3.92,2.93,7.64-.18,11.89-5.12,7-5.31,10.49-.21,16.89s4.74,13.64,1.91,19.71c-3.06,6.56-6,13.26-9.5,19.66-2.86,5.28-6,9.73-13.24,10.45-6.93.68-8,4.09-5.08,10.4.56,1.2,1.46,2.23,2.08,3.4,1.86,3.58,1.56,6.6-2.82,7.74-6.53,1.71-12.05,5.44-18,8.41-3.55,1.78-7.24,3.27-11.37,3.41a16,16,0,0,0-6.74,1.33C865.13,2378.49,856,2380.33,846,2377Zm14.74-33.73a19.39,19.39,0,0,1,3.84-.9c9.13-.32,17.2-5.14,25.89-6.4,9.48-1.36,14-6.35,19.47-13.66,7.62-10.22,10.13-20,7.4-32.08-3-13-5.81-25.79-18.86-33.18-10.6-6-21.58-11.9-33.84-8.39-15.84,4.54-29.85,12.67-38.65,27.61-1.6,2.71-2.58,5.25-1.18,8.42,4.25,9.63,4.67,19.81,4.79,30.18.12,9.66,2.6,18.42,13.87,21.32,2.47.64,4.72,2.4,6.9,3.89C853.57,2342.28,857.36,2342.18,860.77,2343.29Z" transform="translate(-222.07 -1737.33)"/><path class="cls-1" d="M840.12,2025.63c-.39,5.34-1.07,10.63-6,13.94-1.64,1.1-3.89,1.64-5.65.39-1.54-1.1-1-3.09-.48-4.6,1.55-4.15,1.46-8.43,1.39-12.72-.05-2.73.31-5.29,2.27-7.39,1.53-1.65,3.43-1.79,5.45-1.36s2.21,2.09,2.33,3.79C839.58,2020.32,839.87,2023,840.12,2025.63Z" transform="translate(-222.07 -1737.33)"/><path class="cls-1" d="M1267.16,2245.93c.15,3.34.18,5.57-1.86,6.56-2.59,1.26-3.1-1.21-4.15-2.79a72.65,72.65,0,0,0-4.78-6.28c-4.71-5.59-5.85-13.06-2.56-19.25,1.51-2.86,3.45-1.16,4.67.3C1264,2231,1266,2239,1267.16,2245.93Z" transform="translate(-222.07 -1737.33)"/></svg>