<svg id="Layer_1" data-name="Layer 1" xmlns="http://www.w3.org/2000/svg" viewBox="0 0 1045.18 1047.9"><defs><style>.cls-1{fill:#fff;}</style></defs><path class="cls-1" d="M2108,1336.36h-31c-4.65,0-9.22.08-13.73-1.81a15.32,15.32,0,0,0-11.74.17c-6.32,2.57-12.53,2.21-19.32,1.49a365.14,365.14,0,0,1-55.4-10.83c-21.34-5.74-42.8-11.36-64-17.82-3.14-1-6-2.85-9-4.21-2.71-1.23-5.53-3.44-8.2-3.3-11.68.58-20.06-6-28.72-12.18-3-2.11-5.75-4.71-9.28-5.75-28.66-8.42-51.78-26.2-74.84-44.1-9.7-7.53-19.53-14.75-30-21.32-19-11.93-35.49-26.8-47.22-46.35-4.8-8-9.95-15.72-17.71-21.29-12.46-8.94-20.45-21.8-28.62-34.21-13.13-20-25-40.77-37.82-60.9-8.11-12.68-12.49-27.07-19.77-40.13-7.63-13.66-12.92-28.27-14.38-44.09-.36-4-2.69-7.47-5.26-10.59-4.38-5.31-5.82-11-2.81-17.53a12,12,0,0,0-1.28-13.05,13.87,13.87,0,0,1-2.31-8.52,34.35,34.35,0,0,0-2.58-12.61c-4.35-11.31-6-23.11-5.91-35.09a201.23,201.23,0,0,0-3-33.6c-1.6-9.65,2.08-19,2.1-28.67,0-1,.8-1.94.72-2.86-1.43-16.36,4-32.29,2.88-48.67-.72-10.67,1.76-21,4.51-31.33,3.56-13.4,7-26.88,7.55-41,.44-10.64,2.87-21.2,8.89-30.25,9.36-14.1,12.92-30.47,18.3-46,8.39-24.29,17.62-47.81,35-67.48,5.42-6.16,8.92-14,13.49-20.92,11.32-17.2,23.32-33.68,37.76-48.67s27.06-32.11,42.49-46c12.17-11,23.89-22.88,38-31.78a67.43,67.43,0,0,0,8.63-6.74c5.69-5.08,11.13-10.46,19-12.1a10.4,10.4,0,0,0,4.31-2.28c10.52-8.74,22.84-14.88,33.54-23.35,4-3.18,8.33-5.56,13.7-5,4,.43,7-1.56,9.6-4.33,7.62-8.2,17.72-10.75,28-13.92,13.16-4,27-4.95,39.77-11.54,10-5.15,19.84-12.27,32.07-12.45,1.81,0,3.82-1.27,5.36-2.44,5.49-4.21,10.9-5.54,17.25-1.47,3.33,2.14,6.87,1.15,10.1-1.46,6-4.82,12.92-6.31,20.56-5.79,10.24.7,20.59-1,30.79,1.33a11.12,11.12,0,0,0,5.95,0c13.5-5.17,27.75-1.87,41.48-3.95,10.46-1.57,20.26-1,29.48,5,3.41,2.21,7.74,1.31,11.67.59,13.64-2.5,27-2.2,40.16,2.86,12.46,4.79,25.69,6,38.82,7.72a77,77,0,0,1,31.58,11.36c1.39.89,2.88,2.16,4.39,2.27,12.7.85,23,8.27,34.29,12.78,8.2,3.26,15.62,8.5,23.72,12.29,9.88,4.62,19.39,10,29.25,14.69a91.85,91.85,0,0,1,17.48,11.2c15.93,12.68,34.89,20.49,50.68,33.24,13.72,11.09,26.92,22.67,38.55,36,.87,1,1.48,2.34,2.52,3.06,18.6,12.86,31,31.53,45.83,48,12.35,13.77,20.52,30.09,30.54,45.29,2.38,3.6,4.39,7.56,7.29,10.68,10.51,11.29,15.36,25.2,20,39.49,3.24,10,6.53,20.28,14.47,28,1.47,1.43,2.7,3.06,2.76,5.17.25,8.73,4.87,16.45,5.64,25.12a23.92,23.92,0,0,0,4.78,11.9,43.26,43.26,0,0,1,7.73,20.25,106.59,106.59,0,0,0,2.76,11.59c2.25,9,4.23,17.91,3.24,27.35a46.69,46.69,0,0,0,2.33,21.64,19,19,0,0,1,.4,11.77c-.59,2.25-2,4.75-4.36,5-2.5.26-4.08-2.1-4.74-4.42-.9-3.17-1.89-6.29-1.87-9.72.05-6.65-.43-13.3-.56-20-.14-6.91.72-13.79-5.07-19.57-1.88-1.87-2.25-5.87-1.9-9.44.82-8.3-1-16.08-4.81-23.75-6.27-12.62-13.62-24.89-14.71-39.58-.31-4.11-2.62-7.91-4.7-11.77-6.23-11.56-14-22.33-16.55-35.87-1.82-9.68-5.35-19.77-12.87-26.5-9.37-8.38-13-19.73-18.86-30a157.76,157.76,0,0,0-21.37-29.66c-12.09-13.07-25.6-24.95-36-39.59-5.92-8.34-15.47-12.44-22.48-19.59-15.4-15.72-34-27.57-51.47-40.72a118.67,118.67,0,0,0-24-14.07,75.88,75.88,0,0,1-18.76-11.07c-6.23-5.25-13.91-7.78-20.22-12.66a13.61,13.61,0,0,0-4.49-2.06c-17.78-5.06-34.08-14.1-51.9-19.2-7.85-2.24-15.31-6.19-23-9.28-12.19-4.91-24.93-6.4-37.5-9.11-7.45-1.61-15-2.67-22.36-4.74-9.69-2.75-19.71-2.62-29.38-4.3-12.91-2.24-25.73,2.42-38.34-1.34a1.84,1.84,0,0,0-1-.08c-13.67,4.45-27.2,1.72-41,.23-9.39-1-18.94,2.82-28.6,2.77-.3,0-.6.38-.9.39-15.28.61-30.22,2.51-44.52,8.61-8.79,3.75-18.36,2-27.61,1.83a17.3,17.3,0,0,0-11.7,4.11c-8.14,6.37-18.3,8.91-27.81,12.73-19.57,7.86-40.33,12.35-58.86,23.38-11.88,7.07-23.3,15.14-36.35,20.46-10.81,4.4-19.74,12.17-28.29,20.14-2.17,2-3.89,4.67-6.88,5.66-11.46,3.81-19.41,12.57-27.92,20.32-14.76,13.45-29.35,27.12-43.35,41.35-15.85,16.1-30.32,33.3-42.4,52.65-6.81,10.92-14.69,21.49-21,32.57-6.19,10.83-14.16,20.66-19.13,32.12-4.86,11.2-9.59,22.52-14.2,33.79-5.63,13.78-8.66,28.5-15.26,41.65-4.61,9.18-6.14,17.81-6.26,27.87-.1,9.4-2.67,19.12-5.92,28.06-4.37,12-5.67,24.43-7.28,36.85-2.09,16.06-4.22,32.12-5.67,48.24-1.05,11.58-1.23,23.3,1.81,34.7a46.09,46.09,0,0,1,1.51,10.8c.44,20.28,4.54,40.09,7,60.11,1.91,15.55,6.3,30.43,8.66,45.77.66,4.32,2.41,8.26,4.17,12.21a50.34,50.34,0,0,1,4.66,16.16c.62,7,4.42,13.27,8.09,19.1a134.36,134.36,0,0,1,14.31,31.67c9.36,29.88,27,54.59,46.21,78.5,3.75,4.66,7.79,9.11,10.26,14.64a14.84,14.84,0,0,0,4,5.64c10.1,8.33,17.15,19.31,25.44,29.22,3.83,4.58,7.65,9.23,12.76,12.45,17.81,11.19,33,25.72,49.25,38.86,7.48,6,15.48,11.38,21.55,19.12a20.44,20.44,0,0,0,8,5.75c21.08,9,40.69,20.84,60.71,31.9,7.8,4.3,15.58,8.47,24.34,11.11,11.63,3.5,22.75,8.77,33.94,13.61,5.18,2.24,10.12,4.78,15.88,5.49,11.54,1.41,22,8.19,33.75,8,13.87-.22,26.3,5.16,39.24,8.63,1.6.43,3.3,1.34,4.82,1.11,11.62-1.71,23,2.41,34.65,1.29,9.49-.91,18.93,2.34,28.65,2.45,18.63.21,37.15-2.07,55.77-1.58,1.32,0,2.9.23,3.93-.39,12.27-7.33,26.49-4.49,39.51-7.71,12.53-3.09,24.74-7.35,37.08-11,13.61-4,25.77-11.48,40.07-14.15,13.52-2.53,26.56-8.3,38.9-14.86,15.74-8.38,33.45-13.13,47.34-24.93,12.68-10.79,28.43-16.84,41.15-27.83,6.64-5.73,14.82-9.52,20.13-17.17a24.59,24.59,0,0,1,10.07-8c9.42-4.08,15.07-11.84,20.73-19.6,7.68-10.54,15.83-20.51,27.41-27.06,7.73-4.38,9.92-13.13,15-19.63,3.62-4.66,6.79-9.79,10.57-14.4,4.45-5.42,8.65-10.93,11-17.67,1.33-3.82,3.88-7,6.36-10.08,3.71-4.69,7.54-9.21,9-15.32.95-4.07,5.46-5.9,7.19-9.4,3.67-7.41,7.79-14.54,11.69-21.8,8.91-16.61,14.58-34.68,22-52,2.75-6.43,4.93-12.91,5-20.15,0-4.16,1.87-8.4,3.41-12.41,7.24-18.85,14.5-37.63,14.45-58.33,0-4.91,1.06-9.89,2.16-14.71,1.19-5.23,2-10.37,1.21-15.75a19.24,19.24,0,0,1,.14-6c2.15-12.75,4.44-25.44,4-38.5-.13-4.08.77-9,6-10.41,3.56-1,7,2.35,9.12,8.67,3.13,9.34,4.1,18.63.23,28.18-2.35,5.81-4.08,11.9-2.33,18.43,1.07,4-.29,8-1.91,11.54a54.13,54.13,0,0,0-4.67,26.19c.65,10.89-2.16,20.73-6.22,30.87a181.92,181.92,0,0,0-11.15,42.15c-1.8,12.9-8.82,23.39-13.4,35-3.38,8.55-7.92,16.64-12,24.91-8.89,18.11-17.11,36.47-28.6,53.29-7.5,11-15.45,21.49-23.38,32.1-8.9,11.91-16.63,24.8-25.12,37.11-4.17,6-8.43,12-14.41,16.33-19.32,14.15-35.6,31.68-53.06,47.87a247.19,247.19,0,0,1-22.25,18.41c-4.65,3.41-9.61,6.13-15.2,7.12-4.63.82-8,2.82-10.3,6.87-6,10.61-16.55,15.26-27,19.15-9.47,3.51-18.42,7.53-26,14.15-4,3.5-8.26,5.38-13.59,5-2.31-.17-5-.59-6.93.31-14.22,6.56-29.85,8.85-44.23,14.89-10.4,4.36-20.94,8.35-32.16,10.13-4,.62-8,1.38-11.21,3.8-5.85,4.36-12.62,5.18-19.52,6.28-8.77,1.39-17.74,1.88-26.13,5.55a28.39,28.39,0,0,1-11.64,2.39c-12-.17-24-.06-35.94-.06Z" transform="translate(-1563.74 -288.83)"/><path class="cls-1" d="M1808.17,773.5c-1.65,3.29-1.67,6-.28,7.68,6.85,8.42,6.64,20.29,14.17,28.36,2.18,2.34,1.68,5.65,1.63,8.64s-.18,6.06,2.63,8.14c10.41,7.7,16,19.38,23.94,29.14,6.75,8.33,14.37,14.56,25,16.83a42.85,42.85,0,0,1,9.43,3.15c10.89,5.14,21.79,9.79,34.33,8.38,3.38-.38,6.51,1.48,8.69,4.21a8.31,8.31,0,0,1,.91,9.38c-1.54,3-4.53,2.87-7,1.8-3.89-1.7-6.82-.35-10.29,1.33a195.09,195.09,0,0,1-18.44,7.44c-5.8,2.13-11.64,2.85-17.19-1a8.18,8.18,0,0,0-2.76-1.09c-2.28-.52-4.65-1.06-6.61.82s-1.45,4.48-.44,6.49c3.9,7.7,6.37,16.19,11.61,23.12,14.72,19.43,32.61,35.33,56.55,41.55,12.92,3.35,25.11,10.63,39.43,8.61,5.3-.75,7.53,3.66,5.18,8.68-1.43,3.07-4.16,5-7,6.92-7.92,5.43-16.87,9.34-23.69,16.42-1.82,1.88-4.49,2.76-7.16,3.29a20.88,20.88,0,0,0-9.72,4.78c-1.49,1.29-3.24,2.89-5,3.1-13.89,1.64-25.07,9.75-37.35,15.23-5.17,2.3-10.92,2.71-16.42,3.92-10,2.18-20.13,3.16-29.93,6.35-4.56,1.48-9.82.81-14.81-.17a79,79,0,0,0-19.84-1.23c-2.44.14-4.84,1-5.36,3.58-.56,2.72,1.64,4.09,3.9,4.94q9.77,3.68,19.58,7.25c1.24.45,3.09.2,3.79,1,7.19,8.34,17.54,7.54,26.81,10.45,12.45,3.9,25.4,7.55,36.51,15.16a23.24,23.24,0,0,0,15.1,4.09c3-.21,6-.61,8.95-.63,9.24-.08,11,1.51,14,12.26a32.93,32.93,0,0,1-12.75-.22c-13.2-3.09-27-4.72-39.38-9.79-13.67-5.59-27.72-8.58-41.83-12-3.46-.84-6.7-2.86-9.82-4.72-16.55-9.85-35-16.2-51-27-2.15-1.45-4.86-2-7.23-3.19-3.42-1.69-6.74-4-5.65-8.31.94-3.64,4.89-3,7.69-3,15-.09,30,0,45,.13,7,.06,14,.42,21,.38,2.61,0,5.6-.15,7.77-1.37,10-5.68,21.54-6,32.27-9,9.56-2.65,18.5-7.22,28.35-8.78a2.07,2.07,0,0,0,.88-.46c11.5-9.19,26-12.66,38.37-20.18,3.59-2.18,5.88-5.14,6.48-9.15-2.24-2.34-4.69-1.63-6.84-1.51-7.32.4-13.44-1.36-18.91-6.83-5.71-5.7-14.16-7-21.11-10.91-13.8-7.79-25-18.49-36.36-29.24-4-3.79-4.86-9.37-7.79-13.82-5.67-8.58-9.13-18.4-14.88-27-2.72-4.08-4.78-9.56-1.25-13.88s9.46-3.05,14.07-1.57a41.08,41.08,0,0,0,14.72,1.7,3,3,0,0,0,3.06-2.05c.48-1.67-.84-2.42-2-2.9-30-12.85-49.76-36.55-66.92-63-3.72-5.74-5.79-11.93-5.27-18.83.51-6.64-1.2-12.5-5.81-17.4a15.85,15.85,0,0,1-4.52-9.77c-.72-9.25-.44-18.52-1.48-27.79-.71-6.28,2.91-8.26,8.85-5.91a14,14,0,0,1,5.62,4c5.44,6.41,12.69,9.28,20.8,10.6,2.83-3.32.51-6.29-1.44-7.85-15-12-19-29.81-25.64-46.31-1.36-3.39-2.88-6.71-4.09-10.14-2.53-7.14-4.89-13.94-3.32-22.14,1.66-8.71.18-17.91.92-26.91.72-8.65,2.82-16.8,5.36-25.1,4.17-13.66,12.06-25.83,14.88-40,.94-4.69,4.3-5.66,8.29-2.93a28.14,28.14,0,0,1,6.51,6.14c10.42,13.86,23.4,25.34,34.92,38.12,22.21,24.67,50.65,40.54,77.78,58.38,1.9,1.25,4.17,2.66,6.31,2.72,12.29.35,21.62,8,32.07,12.77,12.39,5.61,24.43,11.94,38.12,13.9a7.63,7.63,0,0,1,2.88.77c15,9.22,32.43,8.45,48.75,12.26a27.28,27.28,0,0,0,3.87.76c13,1.14,16.83-3.05,14.84-16.1-.3-2-.81-4-.43-5.91,4.52-22.45,8.44-45.24,20.3-65.22,6.23-10.48,11.87-21.42,20-30.85A76.76,76.76,0,0,1,2147.41,588c23-12.6,46.57-24.12,72.78-28.79,1.3-.23,2.62-.92,3.87-.8,21.94,2.13,44.75.14,64.39,13.3,2.85,1.91,6.1,3.41,9.2,3.51,12.28.37,21.08,7.7,29.71,14.76,6.6,5.38,12.62,8.85,21.53,6.34,6.56-1.84,14.13.42,20.22-3.87,5.77-4.06,12.45-6.25,18.47-9.63,12.63-7.1,27-11.48,36.86-23.19,2.86-3.37,7.56-5.36,11.69-7.43,2.82-1.41,5.32.76,4.92,3.94a12.55,12.55,0,0,1-1.63,4.65c-8.1,13.86-12.17,29.41-18.39,44-2.56,6-5.71,11.18-10.58,15.42-1.75,1.52-3.36,3.23-5,4.92-2.48,2.62-6.08,5.31-2.75,9.23,2.8,3.3,6.69,2.27,10.09.5,12.07-6.25,24.09-12.6,36.13-18.91,1.77-.92,3.56-1.81,5.32-2.74s3.78-1.41,5.45.33,1.23,3.76,0,5.45c-2.91,4-5.43,8.6-9.1,11.79-5.86,5.09-10.26,11.24-15,17.23-12.52,16-24.55,32.4-41.37,44.27-15.22,10.74-16.22,25.63-14.71,42.48s1.43,33.66-3,50.18c-3.54,13.1-6.44,26.35-10.79,39.27-2.75,8.16-5.41,16.26-8.73,24.25-4.56,11-7.69,22.54-11.4,33.87-.41,1.26-.21,2.91-1,3.85-8.08,10.24-11.23,23.37-19.64,33.35-2.19,2.61-4.05,4.91-4.28,8.61-.49,7.8-4.57,13.78-11,18-5,3.24-7,7.94-9.51,13.24-5.49,11.79-10.68,24.34-24.37,29.9a17.79,17.79,0,0,0-9,7.64c-5.41,9.86-14.62,16.22-21.86,24.35-9,10-20,17.37-29.77,26.24a7.94,7.94,0,0,1-2.31,1.88c-11.47,3.87-20.17,12.58-31,17.67-7.48,3.52-15.35,6.53-21.19,12.86a6.4,6.4,0,0,1-3.32,2.07c-10.7,1.74-20.34,6.59-29.44,11.8-11,6.27-22.46,9-34.71,10.13-2.55.24-5.09,1.48-7.45,2.64a28.93,28.93,0,0,1-10.4,3.19c-16.85,1.22-33.22,5.22-49.8,8-11.1,1.89-22.48.36-33.75,1.68-7.49.88-12.24-2.74-12.93-6.8-.72-4.31,2.68-7.8,10.19-10.52,7.08-2.56,14.16-3.5,21.29-.18,5.11,2.38,10.29,2.6,15.36.07,6.23-3.12,13-2.15,19.56-2.83,13.26-1.38,25.5-7.74,38.76-8.26,17.93-.71,32.94-9.11,48.46-16.43,8.4-4,17.77-5.39,25.85-10.29,12.75-7.72,26.11-14.38,38.38-23,12.53-8.77,24.54-18.18,36.44-27.76,12.84-10.34,22.35-23.57,32.53-36.25,4.35-5.42,9.53-10.23,13.87-15.55,10.16-12.49,20.48-24.83,27.28-39.94,6.5-14.42,12.07-29.58,22.67-41.92,2.93-3.4,4.28-7.44,2.27-12-2.14-4.88-.26-8.71,2.71-12.82,7.24-10,12.63-20.88,12.36-33.79-.08-3.73,1.52-7.15,3.72-10.17a39.25,39.25,0,0,0,7.29-18.31c1.63-12.42,6.28-24.41,5-37.26a25.3,25.3,0,0,1,.73-8.92c1.88-7,1.34-13.73-.38-20.62-1-3.82-1.07-7.86-1.85-11.74-2.12-10.64-.64-19.1,10-25.38,7.88-4.65,14.3-11.8,21.33-17.89,2.5-2.17,5.06-4.31,6.69-7.31,1.73-3.18,1.07-5.36-2.76-5.08-5.93.44-11.82,1.35-17.72,2.16-1.29.17-2.54,1.06-3.8,1.06a158.78,158.78,0,0,0-42.19,5.89,8.38,8.38,0,0,1-4.91-.42c-2.37-.89-5.43-1.48-5.39-5,0-3,2.58-3.75,4.72-4.45,8.83-2.87,16.09-9.22,25.5-11,4.16-.76,7.8-3.3,11.25-6.11,8.82-7.18,16.17-15.81,24.38-23.59a9.81,9.81,0,0,0,1.09-1.67c2-3,5-6.36,2.12-9.8-2.67-3.21-6.2-.3-9.18.72-6,2-10.68,6.83-17.12,7.91-9.74,1.63-19.68,2.13-28.77,6.93-3.74,2-7.75.22-10.79-3-16.07-17-37.87-25.48-56.94-38-2.61-1.72-5.6-1.84-8.65-1.81-18.93.15-38-1.1-56.72,2.14-11.16,1.93-21.46,6.66-31,12.82-5.57,3.61-10.89,7.62-16.29,11.48a61.52,61.52,0,0,0-16.41,17.11c-5.72,8.93-12.33,17.28-18.55,25.9-2.36,3.26-4.73,6.62-4.32,10.88.57,5.81-1.76,10.63-5.53,14.45-8.13,8.21-7.54,18-5.6,28,.91,4.6,2,9,1.28,13.72a19.11,19.11,0,0,0,1.3,9.77c.47,1.24.92,2.5,1.34,3.76,1.76,5.38,4.15,11.57,0,16-3.91,4.19-9.81,2-15.05.43a45,45,0,0,0-13.64-2.25,68,68,0,0,1-31-6.11c-2.92-1.35-6.4-1.68-9.67-2-5.09-.52-9.87-1.9-13.93-4.93a25.25,25.25,0,0,0-17.76-5.1c-9,.73-16.87-1.71-24.5-6.62-11.24-7.24-24-11.39-36.63-15.39-11.71-3.7-22.28-8.67-29.62-19a7.14,7.14,0,0,0-2.85-2.75c-12.11-4.2-21-13.71-32.35-19.35a97.17,97.17,0,0,1-30-22.66c-7-7.93-15.63-14.44-20.26-24.34a7.43,7.43,0,0,0-2.68-2.89c-3.2-2-5.73-6.28-10.36-4.36-4,1.66-4,5.68-4.56,9.33a91.09,91.09,0,0,1-4.54,16.23c-5.44,14.9-8,30.15-2.1,45.59,2.17,5.65,3.8,11.24,3.45,17.41a19.35,19.35,0,0,0,4,13.07c3.11,4,4.53,8.91,7.2,13,10.56,16.21,18,35.16,38.11,43.15,5.81,2.3,9.91,7.79,16.06,9.89,3.12,1.06,4.89,3.43,4.38,6.94s-3.24,5.07-6.16,5.78c-4.4,1.06-8.53-.7-12.49-2.41-2.43-1-4.65-2.56-7-3.84-3.17-1.73-6.24-2-9.27.47-5.08,4.14-10.5,3.13-16,.9C1823.34,779.56,1816,776.63,1808.17,773.5Z" transform="translate(-1563.74 -288.83)"/><path class="cls-1" d="M1956.41,1107.64c2.81.64,8.28-1.63,8.58,3.07.27,4.06-5.71,3-8.61,4.75a2.64,2.64,0,0,1-1,.2c-5.68.81-12.61-1.27-12-3.68,1.46-5.62,6.61-3.86,10.55-4.33A23.37,23.37,0,0,1,1956.41,1107.64Z" transform="translate(-1563.74 -288.83)"/><path class="cls-1" d="M2599.53,794.21c-2.15-4.8-3.18-9.33-7.14-12.77-1.78-1.54-2.88-4.93,0-6.85,2.69-1.79,4.91.26,6.8,2.16,1.18,1.19,2.28,2.62,1.93,4.33A81.84,81.84,0,0,0,2599.53,794.21Z" transform="translate(-1563.74 -288.83)"/></svg>