<svg id="Layer_1" data-name="Layer 1" xmlns="http://www.w3.org/2000/svg" viewBox="0 0 1047.67 1045.39"><defs><style>.cls-1{fill:#fff;}</style></defs><path class="cls-1" d="M777.44,310.72c-11.15-2.19-21,.41-30.4-2.33-1.59-.46-3.34-.42-4.87-1-5.82-2.24-6.9-8-1.68-11.41,9-5.83,19.13-8.2,29.33-4,6.66,2.77,13.11,4.26,20.24,3.67a44,44,0,0,1,18.69,2.18c13,4.66,26.79,3.92,40.18,5.9,2.62.38,5.47.61,7.71,1.83,12.43,6.76,26.38,8.49,39.73,12,29.12,7.59,55.59,21.43,82.56,34.05,11.07,5.17,21.26,12.21,31.92,18.27,26.91,15.31,49.7,36.54,76.06,52.7,10.16,6.24,18,15.55,24.89,25.49,2.65,3.85,5.61,7.35,9.73,9.83a15.08,15.08,0,0,1,5.1,4.64c10,16.31,25.95,27.42,37,42.8,5.08,7,10.68,13.6,11.86,22.61.64,4.87,3.71,7.71,8.11,9.17,4.88,1.63,7.09,5.39,9.29,9.72,7.94,15.64,14,32.26,24.4,46.63,2.54,3.5,4.32,7.59,3.89,12.12-.55,5.87,1.28,11.15,3.61,16.35,2.6,5.78,4.77,11.66,5.16,18.09a12.38,12.38,0,0,0,1.52,5.69c6,9.72,7.82,21,12,31.42a34.16,34.16,0,0,1,2.37,8.61c.37,2.93.4,6.25,1.82,8.67,9.67,16.48,8.41,36,15.14,53.35a29.6,29.6,0,0,1,1.32,16.52c-1,5,.55,10.59.57,15.75,0,19.21,3,38.61-2.23,57.61-.64,2.35-1.26,4.9-.24,6.82,6.08,11.37,1.58,22.88.5,34.21-1.35,14.16-7,27.56-8.55,41.75a28.51,28.51,0,0,1-4.14,12.17,13.34,13.34,0,0,0-2.2,5.5c-1.33,14.7-7.5,28.17-10.57,42.42a49.56,49.56,0,0,1-5.26,13.94c-2.8,5-4.85,10.08-4.25,16.07.49,4.9-2,9-5,12.67-7.28,8.76-13.14,18.08-15.55,29.6-1.48,7.11-6.07,13.28-10,19.4-11.65,18.14-23.84,35.83-37.93,52.33-7.14,8.36-13.17,18.29-18.48,28.18-4.36,8.11-10.38,14.78-16.72,20.93-7.78,7.54-15.09,15.83-25.52,20.41-7.61,3.35-13.84,8.83-19.22,15.47-10.09,12.47-22.54,22-36.15,30.76-20,12.94-41.19,24.1-60.59,38.06-4,2.87-8.79,4.66-13.33,6.67-15.1,6.7-29.17,15.5-44.63,21.45-5,1.92-9.85,3.75-15.33,4a35.26,35.26,0,0,0-19.42,6.42c-6.06,4.29-12.32,6.35-20.47,3.56-9.49-3.26-19.21,1.29-27.83,4.8a97.77,97.77,0,0,1-32.86,6.82c-13.27.6-26.48,3.47-39.54,3.16-20-.47-40.58,1.68-60.06-5.52a27.28,27.28,0,0,0-15.74-.93c-13.9,3.27-27,.54-39.91-4.13-5.08-1.84-10.26-2.19-15.47-3.05-21-3.46-43.24-2.85-61.05-17.51a8.1,8.1,0,0,0-3.49-1.87c-8.88-1.55-16.72-6.25-25.29-8.42A205.84,205.84,0,0,1,509,1279.91c-13.67-6.61-27.22-13.94-38.39-24.65-3.64-3.5-7.93-5.66-12.25-8.15a372.76,372.76,0,0,1-34.06-22.32c-14.5-10.62-26.63-24-39.5-36.43-6.46-6.26-12.92-12.34-20.45-17.44-6.82-4.62-12.86-10.42-16.67-18.18a29.56,29.56,0,0,0-7.87-10.22c-12.11-9.7-19.19-23.57-29.17-35-4.86-5.58-5.82-13.11-10.59-19-7.51-9.24-13.06-20-20.53-29.37-3.38-4.26-5.66-9-5.3-14.64.32-4.81-2.05-8.41-5.67-11.07-7-5.11-9.15-12.42-11.11-20.41-3.83-15.66-6-31.65-13.5-46.53-4.95-9.78-11.42-19.56-11.8-31.32-.07-2.44-1.6-4.35-2.85-6.3-3.47-5.37-4.78-10.87-1.63-16.91,1.88-3.61,1-6.86-1.3-10.17-5.31-7.69-6.29-16.09-5.86-25.52s0-19,1.69-28.46c.47-2.64-.45-5.25-1.4-7.78-3.27-8.64-3.18-17.53-1.81-26.49,1.11-7.28-1.79-14.41-.78-21.71.41-3-.84-6.61.48-8.87,7.19-12.24,3.37-25.17,3.17-37.89-.13-8.11,2.37-15.77,4.65-23.36a190.29,190.29,0,0,0,7.81-40.87c.6-8.43,4.19-16.21,7.94-23.45,6.76-13,10.38-27.22,17-40.32,11.16-22.19,21.42-44.8,34.37-66.12,4.09-6.75,8-13.39,13-19.53,6.75-8.18,10.15-18.49,16.17-27.32a184.55,184.55,0,0,1,19.91-24.65c8.75-9,17.57-18.09,26.23-27.12,8.15-8.5,15-18.79,24.39-25.93,22.1-16.82,41.51-37.32,67.31-49.23,6.51-3,12.13-8.1,17.89-12.6a90.52,90.52,0,0,1,31.45-16.25c10.79-3.08,22-6.71,30.78-14.65a5.18,5.18,0,0,1,2.49-1.58c9.33-.88,17-7.14,26.39-7.94,2.92-.25,6.71.53,8.62-1.74,7.72-9.14,19.74-8,29.25-12.82,6.23-3.16,13.44-3.1,20.36-3.24,7.66-.16,15.34-.24,23,0,6.21.21,11.83-.69,16.72-4.94,1.92-1.66,4.15-3.79,7.09-2.66,3.41,1.31,7.19,2.76,7,7.34-.13,3.95-3.78,4.2-6.52,4.91a138.26,138.26,0,0,1-32.37,4.61c-4.71.09-9.36.09-13.44,2.83a13.53,13.53,0,0,1-10.59,1.69c-6-1.23-10.85.83-16.17,3.16-17.28,7.56-34.86,14.43-52.76,20.43-.94.31-2.21.14-2.87.71-8.35,7.23-19.87,8.62-28.37,15.44a10.61,10.61,0,0,1-8.33,2.42c-11.79-1.41-20.14,5.58-28.15,12.27a110.18,110.18,0,0,1-22.22,14.85c-20.09,9.83-38,22.57-52.39,40.1-5.24,6.39-11.07,12.39-18.62,16.43a38.71,38.71,0,0,0-13.76,12.86A88.43,88.43,0,0,1,361.91,475c-17.21,16-28.86,36.34-42.56,55-7.67,10.44-14.64,22-19,34.6-.82,2.4-2.43,3.91-4,5.56-7.53,7.82-11.48,17.48-15.77,27.31-4.46,10.21-7.93,20.85-12,31.13-4.24,10.82-8,22-12.44,32.8-3,7.28-7.12,14.52-7.55,22.51-.76,14.41-4.62,28.17-8.52,41.79-4.08,14.26-2.63,29-5.71,43.25a16.36,16.36,0,0,0,.62,7.85,25.25,25.25,0,0,1,.14,12.83,31.19,31.19,0,0,0,.87,17.6c1.24,3.8,2.54,7.75,1.15,11.71-3.41,9.67-3.09,19.37-1.71,29.4,1.91,13.76,2.94,27.65,4.19,41.5.7,7.75,4.48,14.54,6.5,21.89a47.5,47.5,0,0,1,1.78,18.69c-.95,7.8.26,14.38,5.25,21.37,6.07,8.51,9.4,19,12.31,29.2,4.56,16,11.9,30.93,16.77,46.81,1.9,6.22,6.76,11.3,10.15,17,11.71,19.58,20.25,41.18,36.39,58a66.63,66.63,0,0,1,10.63,15.61c4.83,9.3,13.15,15.78,19.94,23.46,12.75,14.41,25.62,28.8,39.42,42.18,10.45,10.13,22.08,19.14,33.8,27.82,14.93,11,30.62,21.16,46.32,31,16.5,10.33,33.32,20.36,51.57,27.91,10.07,4.16,20.43,7.72,30.34,12.39,8,3.79,17.26,4.59,25.37,8.55,2.67,1.31,5.66,2,8.22,3.51a22.57,22.57,0,0,0,15.37,3c5.49-1,10.35.69,15.56,2,20.19,5,40,11.5,61.13,12.42,13.15.57,26.3,2.27,39.41,4,14,1.89,28.35,3.44,42.33-1.5a26,26,0,0,1,8.81-1.32c18.67.29,36.85-3.56,55.24-5.87,19.12-2.39,38.09-5.26,56.25-11.68,14.21-5,29.2-7.52,42.38-16.06,13.66-8.84,30-12.49,45-18.78a189.27,189.27,0,0,0,48.21-29.26,242.65,242.65,0,0,1,29.08-21c1.42-.86,3.27-1.38,4.21-2.6,9.26-12,21.74-20.35,33.58-29.47,12-9.27,18.1-23.6,28.22-34.65,9.84-10.74,18-23,27.1-34.44,3.9-5,7.83-9.9,13.17-13.51a15,15,0,0,0,5.53-6.94c8.58-21.3,20.61-40.78,31.8-60.72a128.7,128.7,0,0,0,9.78-21.74c4.68-13.77,10.71-27.08,16.14-40.59a59.92,59.92,0,0,0,3-8.37c1.64-7.11,3.33-14.19,6.17-21,3.43-8.19.88-17.19,3.43-25.53.67-2.19.3-4.76,1.2-6.83,6.59-15.22,7.88-31.48,8.63-47.65,1.12-23.83,4.56-47.61,2.28-71.56-.89-9.24.61-18.59-1.44-27.82-.64-2.89-1.12-5.79-2-8.69-2.37-8.29-4.41-16.66-4.24-25.43a33.54,33.54,0,0,0-1.3-9.81c-4.9-16.81-8.41-34.26-15.42-50.15-11.64-26.36-17.77-54.65-31-80.54-7.92-15.52-15.63-30.52-27.64-43.15a12.15,12.15,0,0,1-3-5.13c-2.16-8.74-7.92-15.21-13.46-21.79-2.61-3.11-3.78-7.18-6.43-10a440.11,440.11,0,0,1-31.33-37c-5.42-7.28-15.6-10.89-22.53-17.71-3.56-3.5-7.7-6.54-10-11-3.33-6.5-8.51-10.79-14.42-14.78-10.46-7.06-20.5-14.74-30.85-22a55.05,55.05,0,0,0-11.26-6.33,28.19,28.19,0,0,1-11.5-7.59c-.87-1-1.85-2.28-3-2.56-14.53-3.55-23.55-16.28-37.17-21.81s-26.19-12.75-40.4-16.6c-3.78-1-7.31-3.17-10.74-5.16-2.62-1.51-5.2-3.17-8.22-3.32-13.86-.69-26.41-6.5-39-11.19-13.86-5.17-28-7.9-42.36-9.36C811.12,314.84,794.13,306.74,777.44,310.72Z" transform="translate(-217.96 -289.86)"/><path class="cls-1" d="M780.72,484a13.53,13.53,0,0,1,12.83-3.5c13,2.73,26.17,3.38,39.21,5.27,8.49,1.22,16.35-2.48,24.63-2.56,1.28,0,2.66-1.08,3.82-.84,13.49,2.81,27.18,1.25,40.74,2.13,5.8.38,11.75,1.59,16.66,5.72,4.24,3.57,9.49,4.68,15,3.78,7.66-1.26,14,.23,20,5.95a52.08,52.08,0,0,0,17.72,10.77c8.22,3,14.83,8.75,23.09,11.47,5.25,1.73,8.57,6.3,12,10.25,5.06,5.75,10.07,11.49,16.23,16.1,5.24,3.92,7.11,10.36,11.26,15.11,10.88,12.46,17.59,27.12,22.62,42.69.4,1.26.44,2.8,1.22,3.76,8.44,10.51,7,22.94,7.67,35.21s2.91,24.32,5,36.39c.74,4.35,1.45,8.59.07,12.74-3.81,11.36-2.36,22.79-1.66,34.4.57,9.47,1.48,19-.36,28.75-1.58,8.49,0,17.9,1.76,26.59,1.87,9.39.73,19.25,4.8,28.29a7.8,7.8,0,0,1-.49,6.81c-4.17,7-3.43,14.79-3.25,22.4.32,13.12-2.41,26.28,1.69,39.42,1.61,5.15.6,11.06-2.94,16.2s-3.24,10.57,1,15.63a13.07,13.07,0,0,1,3,9.28c-.79,16.18-.47,32.44-5.57,48.17-1.42,4.35-1.38,9.14-.9,13.86.85,8.4-.12,16.52-4.6,24-3.32,5.53-3.83,11.93-4.91,18.1-.52,3-.68,5.92-2.19,8.62a473.43,473.43,0,0,1-27.82,44.72c-6,8.33-14.52,14.58-22.62,21-12.56,9.89-25.89,18.89-40.19,25.81-13.58,6.57-27.66,12.5-43.18,14.06-9.8,1-19.85,1.15-29.28,4.9a17.8,17.8,0,0,1-7.87.85c-13.18-1.08-26.41,2.94-39.56-.52a8.5,8.5,0,0,0-5,.17c-15.52,6.24-31.45,2.13-47.19,1.86-13.26-.23-26.53-.53-39.77-1-8.3-.28-16.94.55-25.39.72-28.18.55-56.31.43-84.49-2.5-11.89-1.24-24.51-2.51-36.38-.72a63.2,63.2,0,0,1-30.25-2.6c-11.24-3.72-23.72-3.46-33.91-10.71-1.44-1-3.85-1-5.82-1-13.33-.07-24.1-6.52-34.58-13.72-1.09-.74-2.07-1.85-3.27-2.21-11.76-3.51-19.45-12.4-27.59-20.71-4.44-4.52-8.95-8.83-14.81-11.64-4.66-2.25-6.68-7.26-9.94-11-10.47-12-18-25.35-20.54-41.24a23.8,23.8,0,0,0-2.87-8.44c-8.86-15-12.21-31.39-12-48.58.12-12.31-3.31-24.39-2.09-36.75.26-2.64-.18-5.37.22-8,2.31-14.87.91-29.58-1.31-44.33-.73-4.89-.81-10,1.4-14.72a21,21,0,0,0,1.6-12.71c-2.12-11.88-1.37-23.77-1.42-35.72-.06-14.64,1.63-29.16,1.75-43.77,0-4.69,0-9.21-1.1-13.78a24.24,24.24,0,0,1,.06-12.79c2.12-7.19,1.1-14.5.41-21.74-1.81-19.07-5.51-38.1.14-57.2,1-3.43,1-7.27.88-10.91-.12-5-.23-10.21,1.55-14.77,7-17.79,4.88-38.34,16.74-54.59,1.25-10.49,10.53-17.49,12.1-27.94.56-3.75,3.63-6.27,7.06-7.94,4.38-2.13,7.12-5.73,9.58-9.79,6.67-11,14.7-20.47,27.62-24.48a22.67,22.67,0,0,0,8.36-5.29c6.12-5.56,11.95-11.68,20.66-13.25,14-12.65,32.9-10.78,49.09-16.92,3.9-1.47,7.92-.75,11.88-.79,7-.06,14,.32,20.57-2.74,1.19-.55,2.65-1.3,3.8-1.05,17.53,3.74,35-3.14,52.52-.29,18.49,3,36.84-1.06,55.25-1.29,9.85-.13,19.85.1,29.74.82,5.76.42,7.69,8.09,3.61,13.33a12.2,12.2,0,0,1-8.42,4.9c-3.29.34-6.88,1.09-9.9.19-10.12-3-20.37-1.61-30.59-2.05-6-.26-11.8-.17-17.69,1.49s-11.92.9-17.77-.5a52,52,0,0,0-22.69-.14,92.26,92.26,0,0,1-23.83,1.17c-13.29-.84-26.69-1.09-39.66,1.68-20.71,4.43-41.25,9.86-60.53,18.87-5.67,2.64-10,7.61-14.53,12-6.21,6-12.77,11.59-19.3,17.23-10.47,9-19.74,19.23-24.34,33.25-2.81,8.57-6,17.64-13.07,24.27a10.11,10.11,0,0,0-3.15,10.8c2.35,8.81.18,17.12-3.82,25-1.54,3-3.6,6.14-2.54,9.35,2.29,6.91-.14,12.9-2.05,19.28-1.51,5-1.95,10.33-2.28,15.68-1.35,22.3,1.7,44.46,1.57,66.7,0,7,3.82,13.74,2.42,20.66-2.94,14.51-.84,29.22-2.5,43.74A72.28,72.28,0,0,0,429.41,843c2.23,9,.84,19.15,0,28.71C428,888.88,427,906,429.17,923.24a14.49,14.49,0,0,1,.32,4A61.08,61.08,0,0,0,432,956.45a11.2,11.2,0,0,1-.73,7.79c-2.93,5.84-1.84,11,1.62,15.92,2.87,4.07,2.72,8.63,3.5,13.22,3.31,19.57,7.42,39.26,20.19,55.05,10.22,12.63,21.88,24.06,31.09,37.6,3.58,5.26,9.09,8.17,15.22,10.64,9.81,3.94,18.81,9.88,28.5,14.17,12.11,5.37,24.58,9.92,38.21,9.48,1.66,0,3.46-.33,5,.18,17.83,6,36.41,1.48,54.49,3.93a16.16,16.16,0,0,0,7.84-1c4.86-2,9.06-1,13.21,1.61,8.12,5.21,16.65,6.41,25.55,2.25,4.82-2.25,9.73-1.82,14.67-1,10.84,1.8,21.71,1.71,32.68,1.7,11.49,0,23.1,1.72,34.41,3.91,6.75,1.3,13.13,1.75,19.44-.5,7.46-2.66,14.91-2.6,22.37-.92,11,2.49,21.73.61,32.25-2.17,6.69-1.78,12.77-3.08,19,1.17a13.57,13.57,0,0,0,7.62,2c10.1-.3,20.23.28,30.14-3,15.17-5,31-7,46.86-8,8.41-.55,15.41-4.55,22.24-8,14.44-7.32,29.5-13.94,41.64-25.19,1.71-1.58,3.93-2.74,5.25-4.57,10.44-14.47,23.27-27.25,30-44.33,5.48-13.84,12.8-27,14.37-42.16.75-7.25,1.62-14.44,4.15-21.38a10.43,10.43,0,0,0,.16-6.86c-3-7.4-1.12-14.31,1-21.4,3.47-11.63,4.47-22.94,0-35a41.28,41.28,0,0,1,.57-31.14,6.3,6.3,0,0,0,0-5.73c-5.36-10-3.29-20.09-.34-30.07,1.79-6.08,3.32-11.85,1.35-18.31-.92-3,.07-6.59.19-9.9.16-4,.64-8-.77-11.88a20.33,20.33,0,0,1,1-16.42c1.94-3.94,1.81-7.23-.12-11.27-3.81-8-4.79-16.44-1.48-25A16.62,16.62,0,0,0,1055,742c-2.3-9.75.33-20-3-29.6a5.5,5.5,0,0,1,.2-3c5.51-19.54,2.81-39.55,2.71-59.31-.05-9.71-2.81-19.6-5.92-29.08-1.14-3.45-2.6-6.93-2.92-10.49-.54-5.94-1.95-11-7.43-14.35-1.49-.93-2.48-3.18-3-5-4.41-14.68-14.18-26.27-23-38.12-5.2-7-13.67-11.44-20.46-17.29-13-11.17-28.33-18.21-43.31-26a37.77,37.77,0,0,0-20.23-4.09A26.25,26.25,0,0,1,913.46,502a44.05,44.05,0,0,0-31.67-5.07c-2.65.57-5.4,1.33-7.85.67-13.84-3.72-27.82-.68-41.72-1.11-8.75-.27-17.27-1-25.18-5a13.92,13.92,0,0,0-10.6-1C786.86,493.17,786.85,493.11,780.72,484Z" transform="translate(-217.96 -289.86)"/><path class="cls-1" d="M708,554c-5.62,4-11.29,5.32-16.82,4.17-7.17-1.49-14.51-1.68-21.56-3.23A24.83,24.83,0,0,0,654.17,556a36.54,36.54,0,0,1-20.31,2.27,47,47,0,0,0-18.8.67c-6.49,1.55-13.24,1.63-19.47-1.46-4.6-2.28-8.56-2.2-13.08.65-5.81,3.66-12.92,2-19.37,3.45-10.4,2.28-20.44,5-28.32,12.82a30.76,30.76,0,0,1-7,5.58c-12,6.39-18.18,18.11-26.15,28.19-1.46,1.85-1.84,4.14-2.31,6.47-1.27,6.17-2.72,12.28-7.24,17.19-2.63,2.85-2.78,6.64-2.63,10.38a71.48,71.48,0,0,1-4.8,29.16c-3.25,8.39-.52,17.73.17,26.6.39,5,1.36,10-.22,14.75-2.45,7.43-2.73,15-2.46,22.65.71,20.31-1.8,40.61-.06,60.92a61.78,61.78,0,0,0,1.11,9.82c.77,3.17,1.29,6.79.53,9.86-4.5,18.27.24,36.23,1.45,54.28.3,4.45.49,8.77-1.67,12.59-2.86,5-2.2,9.6.8,14,3.57,5.28,3.87,10.91,3.54,17.13-.94,17.46-3,35,2.21,52.26,1,3.36,2.33,6.91.35,10.65-.93,1.76-.15,4,.91,5.74,4.26,6.89,5.7,14.77,8.11,22.31,3.48,10.84,11.74,18.37,18.71,26.76,15.85,19,37.36,26.82,61,29.78,6.63.83,12.76,3.69,19.4,4,13.58.75,27.17,1,40.69-1.11,1.93-.29,4.28-.51,5.89.3,7.83,4,15.36,2.26,23-.34,5.21-1.76,10.76-1,15.85,0,19.26,3.75,39,1.93,58.25,5,2,.32,3.88-.43,5.83-.83,7.42-1.52,14.79-3.7,22.54-1.2,2,.65,4.56-.27,6.85-.59,7.6-1.08,15.34-1.47,22.78-.05a81.94,81.94,0,0,0,21.81,1c13.51-1,27.1.92,40.64-2,6.69-1.44,13.89,0,20.81,1.14a39.69,39.69,0,0,0,16.73-.39A200.61,200.61,0,0,0,936,1054.17c18.46-8.66,32.7-22.41,41-41.54,1.06-2.43,1.72-5.14,3.2-7.27,8.09-11.58,10.7-24.72,11-38.44a89.19,89.19,0,0,1,2.33-16.71c1.58-7.49,2.42-14.86.65-22.6-1.57-6.89.84-13.87,1.88-20.72,1.62-10.6,2-21.07-.11-31.63-1-5.26-1.19-10.52,1-15.71a15.29,15.29,0,0,0,1-6.84c-1.79-21.63,3.09-43.14,1.3-64.71-2-23.41-.39-47-5-70.27a20.45,20.45,0,0,1-.11-8.94c3.81-14.47-.11-29.2,1.77-43.72.36-2.87.34-6.58-1.17-8.73-5-7.19-4.64-15.66-6.85-23.51-4.55-16.23-12.18-30.68-26.36-40.89a55.55,55.55,0,0,1-11.11-10c-4.88-6.12-11.34-9.2-18.47-10.9-18.31-4.37-36.48-9.47-55.42-10.83-11-.78-21.92-.08-32.86-.18-12.29-.12-24.5.32-36.69-1.7-2.92-.49-6.07-1-8.9-.38-18.1,3.6-36.12.38-54.16-.38-5.31-.22-7.54-3.8-6.15-8.89,2.1-7.77,11.56-12.88,19-9.19,6,3,11.83,3.05,18.16,2.9,7.85-.19,15.65.78,23.57-.64A26.45,26.45,0,0,1,815,544.08c3.63,1.81,7.43,1.7,11.58.83a79.59,79.59,0,0,1,25.52-1.64c14.8,1.65,29.81,1.56,44.68,3.05,9.55,1,19.11,1.71,27.74,6.8,8.93,5.28,19.45,6.29,29,10.24a44.79,44.79,0,0,1,19.36,14.76c8.87,11.62,17.46,23.46,26.49,35,4,5.12,5.12,10.72,4.56,16.84-.63,7,.78,13.12,6.19,18.11,2.86,2.63,3.59,5.91,2.51,10-1.66,6.21-.72,12.49,1,18.66.7,2.45,2.37,4.75,1,7.64-4.65,10.09-3.32,20.88-3.38,31.48-.07,16.24.11,32.63,4.24,48.32,4.2,15.94.6,31.76,1.69,47.59a10.44,10.44,0,0,1-1.07,4.8c-3.24,7.21-3.3,14.06,1.32,20.82,2.16,3.15,2,6.79,1.39,10.55a344.66,344.66,0,0,0-4.94,70.35,26.36,26.36,0,0,0,.85,6.88c.67,2.21,1.56,4.78,1,6.84-3.23,12.28-2.09,24.82-2.64,37.25-.76,17.13-10.57,31.22-15.33,47-2.5,8.27-4.77,16.39-10.71,23.25-4.68,5.4-9.58,10.55-16,13.19a57.34,57.34,0,0,0-19.49,13.4c-6.62,6.8-15,9.68-23.78,11.6-12.28,2.67-24.56,5.47-37,7.44-12.73,2-25.59,3.27-38.42,4.53-3.9.38-8-.76-11.8-.85-11.36-.27-22.64.36-33.34-4.73-2.34-1.11-5.35,0-7.7,1.26-8.22,4.26-16.87,3.42-25.39,2-5-.84-9.76-1.2-14.71-.07-3.9.88-7.82.48-11.82-.25-9.75-1.79-19.77-5-29.35-4.12-14.34,1.36-28.38.12-42.55-.37a26.26,26.26,0,0,0-8.77,1.39c-7.64,2.47-14.74,1.55-22.28-1.16-6.93-2.49-14.51-1.22-21.76-.11a124,124,0,0,1-31.73,1.06c-2.93-.31-6.44-.46-8.57-2.11-6.41-5-13.88-5.73-21.38-6.83-16.46-2.4-29.28-11.66-41.51-22.07-6.31-5.37-12.21-11.27-19.62-15.27-1.69-.91-3.79-2.46-4.2-4.09-2.23-8.91-9.61-15-12.34-23.65a32.31,32.31,0,0,0-4-7.94c-3-4.6-4.69-9.4-4.22-15a35,35,0,0,0-4.61-20.09c-2.54-4.58-3.75-9.13-1.56-14.26a9,9,0,0,0-.38-8.65c-4.15-6.63-3-13.5-.48-20.15,3.12-8.36,4-16.11.34-24.95a40.2,40.2,0,0,1-1.73-25.4,17.07,17.07,0,0,0,0-8.89,43,43,0,0,1,1-26.46,20,20,0,0,0,.54-10.6c-1.49-8.79-3.06-18.3-1.73-26.6,1.72-10.73-1.36-21-.2-31,2.13-18.54,0-37.19,2.85-55.64.85-5.51.15-11.25.25-16.89.38-20,4.8-39.34,8.85-58.75,1.21-5.83,2.54-11.66,3.79-17.47,2.89-13.44,10.84-23.12,20.73-31.83a56.12,56.12,0,0,0,7.24-8.2c13.89-18.18,33.54-26.14,54.9-31,6.78-1.55,13.74-2.49,19.72-6.45,3.69-2.46,7.45-2.35,11.32-.41a26.47,26.47,0,0,0,24,.54,15.76,15.76,0,0,1,14.37.14c5.35,2.66,10.28,2.76,16-.1,9.26-4.6,19.08-2.11,28,1.52,5.51,2.25,10.13,3.95,16.09,1.78S704.69,548.39,708,554Z" transform="translate(-217.96 -289.86)"/><path class="cls-1" d="M588.15,784.59c1.67,9.22-1.77,19.88-3,30.72-.28,2.39-.72,4.53.34,6.64,3.29,6.55,2.76,13.57,2.71,20.53-.07,7.76,2.39,14.75,5.2,22a257.8,257.8,0,0,0,17.55,35.64c3.43,5.89,7.43,10.87,13.35,14.37,4.66,2.77,8.42,6.48,9.62,12.12.75,3.52,2.78,6.34,6.21,7.18,5.85,1.44,9.86,5.41,13.9,9.27a43.64,43.64,0,0,0,19.76,10.78,106.42,106.42,0,0,1,22.3,8.32c14.54,7.64,30.49,7.29,46,9.6,14,2.08,27.44.29,40.65-4.44a17.88,17.88,0,0,1,5.83-.93c7.69-.08,14.14-3.06,19.88-8,2.5-2.14,4.81-4.68,8.36-5.16,8.33-1.12,13.8-7.3,20.58-11.26,18.09-10.59,26.77-29.05,39.1-44.45a20.85,20.85,0,0,0,3.64-8.12c.86-3.52,1.91-7.22,3.84-10.22,5.34-8.28,8.34-16.62,8.07-27-.22-8,3-16.25,5.74-24a34,34,0,0,0,2.09-14.57c-.21-2.31-.74-4.69-.45-7,1.37-10.61-3.15-20-6.34-29.51-1.48-4.43-3.19-8.7-3-13.42.59-17.79-8.47-31.5-18.83-44.64-1.85-2.34-4.22-4.27-6-6.64-13.66-17.95-30.89-31.56-50.4-42.66-9.88-5.63-19.82-10.56-31.23-12.16a16.34,16.34,0,0,1-7.31-2.89,33.62,33.62,0,0,0-16.43-6.48,15.06,15.06,0,0,1-4.7-1.48c-1.51-.75-2.75-2.16-2.32-3.94a3.87,3.87,0,0,1,3.6-3c7.35-.45,14.73-.68,21.2,3.62,5.2,3.45,11,4.53,17,4.87,10.66.6,19.4,5.74,27.75,11.76,10.15,7.31,19.05,16.41,30.82,21.38.91.39,2.22.59,2.62,1.29,5.79,10.33,17.16,15.65,23.07,25.93A112.26,112.26,0,0,0,889,723.41c2.8,3.46,5,7,5.88,11.34a15.09,15.09,0,0,0,4.5,8.63,19.07,19.07,0,0,1,5.89,14.35A41.69,41.69,0,0,0,909.17,776,30.06,30.06,0,0,1,912,790.58a38.11,38.11,0,0,0,1.34,10.79c1.33,5.78,2.73,11.55.67,17.55a16.66,16.66,0,0,0-.59,6.93c1,10.09.7,19.72-4.92,28.85-1.71,2.77-.85,7.14-1.14,10.78-.23,2.94.73,6.1-1.11,8.77-6.23,9-9.13,19.83-15.06,28.94-4,6.07-6.82,12.66-11.27,18.61-10.3,13.77-24.12,23.64-36.2,35.39-6.69,6.52-15.53,10.24-24,14-11.52,5.1-22.69,11-34.62,15.21-3.86,1.37-7.75,1.48-11.67,2.09-15.09,2.36-30.23-1.48-45.39,1-7.42,1.21-15.06-.9-22.43-3.18-11.35-3.53-21.75-10-34-10.92-3.31-.26-5.67-3.31-8.28-5.33s-4.74-5.11-7.66-6.31c-17.61-7.23-30.92-20.39-45.28-32.12-2.3-1.87-5.33-3.37-6.69-5.79-10.56-18.92-26.37-35.3-28.44-58.37a11.56,11.56,0,0,0-1.33-4.75c-7-11.94-5.76-25.54-7.72-38.47-1.16-7.63,1.43-15.12,1.49-22.77.07-8.28.63-16.58,3.76-24.44a2,2,0,0,0,.19-1c-3-19.37,10.48-32.71,17.49-48.49,6.62-14.92,17.2-27.14,28.39-38,13.59-13.23,27.2-27.38,46.22-33.78,6.24-2.1,11.9-5.86,18-8.53,15-6.6,31.38-7.88,47.19-11.34a15.51,15.51,0,0,1,9.74,1.26c5.74,2.55,7.86,5.91,6.36,10.62-1.67,5.27-7.85,9.92-12.27,7.54-8.21-4.42-15.32-2.25-22.73,1.07-5,2.24-10.62.72-15.65,2.55-12.75,4.64-24.86,10.49-37,16.62-14,7.09-23.05,18.88-33.17,29.39-8.23,8.53-16,18.52-19.23,30.83a29.07,29.07,0,0,1-8.3,13.48c-7.3,6.83-8.86,15.2-8.52,24.46C588.24,776.7,588.15,779.7,588.15,784.59Z" transform="translate(-217.96 -289.86)"/><path class="cls-1" d="M712.51,699.59c.53,0,2.06.44,3.16-.06,16.48-7.45,32.54,3.43,48.93,1.12,2.36-.33,5.23,1.07,7.49,2.34,5.25,2.94,10.46,5.63,16.69,5.9a10.45,10.45,0,0,1,5.41,2.35c19.15,14.74,38.79,29,51.7,50.19,1.2,2,3.4,4,3.38,6-.07,8.14,3.13,14.6,8.39,20.49a9.4,9.4,0,0,1,2,8.51c-2.94,11.69.14,23.76-2.31,35.41-2.17,10.29-5,20.11-12.71,28.31-4.83,5.12-7,12.66-11.09,18.6a115.55,115.55,0,0,1-23.07,24.38c-9.51,7.64-21.25,10.18-31.24,16.5-8.1,5.12-16.68,2.29-24.82-1.14-1.62-.67-2.88-1.84-2.58-3.75a3.43,3.43,0,0,1,2.65-2.7c2.22-.6,4.49-1.7,6.69-1.59a31,31,0,0,0,19.68-5.79,12.3,12.3,0,0,1,4.46-2.19c16.47-2.92,25.26-15.63,35.58-26.86,12.26-13.33,16-30.27,21.83-46.38a10,10,0,0,0,.57-3.91c-.94-15.36-1.7-30.43-7.92-45.25-10.75-25.62-29.15-42.92-53-55.56A28.28,28.28,0,0,0,771,721.05c-8-.51-15.72-1.71-22.84-5.64-2.48-1.36-5-1-7.67-.18-4.1,1.29-8.53,3.28-12.53,2.75-11.92-1.56-22,4-32.62,7.27-10.86,3.39-18.85,11.78-24.8,20.67-4.76,7.12-10.11,13.89-14.62,21.22-11,17.9-15.1,37.3-14.2,58a26.9,26.9,0,0,0,3.59,12.3,55.93,55.93,0,0,1,7,18.37c1.31,7.47,6.89,13.78,11.93,19.25,14.59,15.85,31.72,28.09,53.43,32.58,6.22,1.29,12.58-.11,18.79,1.84,7.93,2.5,10.42,6.69,7.39,13.93-2.27,5.42-5.41,7.33-10.9,4.63-7.33-3.61-15.1-4.68-22.9-5.77s-13.88-6.15-20.72-9.38c-20.56-9.69-36.62-24.89-50.33-42.73-1.8-2.35-3.9-4.88-3.59-8,1.15-11.45-5.28-20.35-10.13-29.61-3.12-5.94-5.16-11.37-2.25-17.87,1.1-2.44,1.73-5.39.76-7.82-3.09-7.68-.91-14.07,3.66-20.33,1.29-1.78,1.77-4.33,2.09-6.59,1.92-13.54,9-24.28,16.38-35.55,9-13.68,21.85-21.6,34.43-30.48,4.34-3.06,8.4-6.53,12.83-9.45C698.81,700.76,704.61,697.55,712.51,699.59Z" transform="translate(-217.96 -289.86)"/><path class="cls-1" d="M957.11,627.09c-2.62,4.27-.21,8.65,1.87,13.29,2.4,5.36.9,10.62-2.49,15a88.62,88.62,0,0,0-9.79,16.1,21,21,0,0,1-14,11.8,31,31,0,0,0-3.82,1.11c-7.21,3-13.6,7-22.58,5.24A46.86,46.86,0,0,1,877.45,672c-11.25-14.48-15.57-11.74-8.9-35.29,3.47-12.25,8.14-23,16.87-32s18.21-16.43,32-14.49c2.32.32,4.92.27,6.65,1.58,11.15,8.46,24.63,14.35,31.21,27.89C956.3,621.74,957.68,623.73,957.11,627.09Zm-40.44-19.56a18.81,18.81,0,0,0-12.16,3.86c-10.28,7.54-17.63,16.28-18,30.12-.24,9.87,1.11,14.77,9.45,19.83,3.4,2,6.93,3.92,10.16,6.22,5.56,3.94,10.85,3.12,16.82.63,10.63-4.44,14-14.2,19-23.16,4.66-8.38,4.17-15.75-1.77-22.83C934,614.77,926.89,608.53,916.67,607.53Z" transform="translate(-217.96 -289.86)"/><path class="cls-1" d="M715.64,298.87c2.85.65,5.69-1.74,8.54.21,1.15.79,2.15,1.73,1.66,3.16-.26.77-1.17,1.82-1.86,1.88-6.18.54-12.12,3-18.46,2.26-1.62-.19-3.47,0-3.91-2.06s.66-3.61,2.6-4.73C708,297.43,711.81,298.54,715.64,298.87Z" transform="translate(-217.96 -289.86)"/></svg>